<?xml version="1.0" encoding="UTF-8"?>
<svg xmlns="http://www.w3.org/2000/svg" viewBox="0 0 64 64">
  <defs>
    <linearGradient id="g" x1="0" y1="0" x2="1" y2="1">
      <stop offset="0" stop-color="#0b5fff"/>
      <stop offset="1" stop-color="#05b1a1"/>
    </linearGradient>
  </defs>
  <path d="M32 6c-6.5 0-11.8 2.2-15.8 6.2C12.2 16.2 10 21.5 10 28c0 6.3 1.9 11.5 5.6 15.6 3.5 4 8.5 6.3 14.5 6.3 3.9 0 7.5-.9 10.6-2.8 2.7-1.6 5-3.9 6.7-6.7l-6.3-3.8c-2.5 4.1-6.6 6.2-11 6.2-3.9 0-7-1.3-9.2-3.8-1.6-1.7-2.7-3.9-3.3-6.5h30V28c0-6.5-2.2-11.8-6.2-15.8C43.8 8.2 38.5 6 32 6zm0 7.2c3.7 0 6.6 1.2 8.6 3.4 1.7 1.8 2.8 4.3 3.2 7.4H20.1c.6-3.1 1.7-5.6 3.4-7.4 2-2.2 4.9-3.4 8.5-3.4z" fill="url(#g)"/>
</svg>
